# No Man's Fly WorldPack v2 normalized UV sphere
v -0.00000000 -0.00000000 1.00277755
v -0.00000000 -0.00000000 1.00279043
v -0.00000000 -0.00000000 1.00286184
v -0.00000000 -0.00000000 1.00293813
v -0.00000000 -0.00000000 1.00290937
v -0.00000000 -0.00000000 1.00296220
v -0.00000000 -0.00000000 1.00350328
v -0.00000000 -0.00000000 1.00355158
v 0.00000000 -0.00000000 1.00293163
v 0.00000000 -0.00000000 1.00260661
v 0.00000000 -0.00000000 1.00243304
v 0.00000000 -0.00000000 1.00228656
v 0.00000000 -0.00000000 1.00219017
v 0.00000000 -0.00000000 1.00217782
v 0.00000000 -0.00000000 1.00225443
v 0.00000000 -0.00000000 1.00239150
v 0.00000000 0.00000000 1.00255590
v 0.00000000 0.00000000 1.00278885
v 0.00000000 0.00000000 1.00335114
v 0.00000000 0.00000000 1.00364642
v 0.00000000 0.00000000 1.00307550
v 0.00000000 0.00000000 1.00279806
v 0.00000000 0.00000000 1.00277750
v 0.00000000 0.00000000 1.00277724
v 0.00000000 0.00000000 1.00277723
v -0.00000000 0.00000000 1.00277723
v -0.00000000 0.00000000 1.00277723
v -0.00000000 0.00000000 1.00277723
v -0.00000000 0.00000000 1.00277723
v -0.00000000 0.00000000 1.00277723
v -0.00000000 0.00000000 1.00277723
v -0.00000000 0.00000000 1.00277723
v -0.00000000 0.00000000 1.00277747
v -0.19651016 -0.00000000 0.98792328
v -0.19232421 -0.03825566 0.98582139
v -0.18200343 -0.07538829 0.99038132
v -0.16188987 -0.10817135 0.97883955
v -0.13662017 -0.13662017 0.97133277
v -0.10720149 -0.16043837 0.97006330
v -0.07336817 -0.17712644 0.96384290
v -0.03743768 -0.18821193 0.96474255
v 0.00000000 -0.18973965 0.95388564
v 0.03733418 -0.18769162 0.96207549
v 0.07341086 -0.17722949 0.96440369
v 0.10765149 -0.16111184 0.97413531
v 0.13775792 -0.13775792 0.97942184
v 0.16118164 -0.10769813 0.97455736
v 0.17840629 -0.07389830 0.97080728
v 0.18984246 -0.03776201 0.97310033
v 0.19508165 0.00000000 0.98074168
v 0.19128262 0.03804848 0.98048239
v 0.18158555 0.07521520 0.98810740
v 0.16488798 0.11017462 0.99696708
v 0.14021705 0.14021705 0.99690559
v 0.10998189 0.16459952 0.99522300
v 0.07595691 0.18337620 0.99785134
v 0.03867923 0.19445361 0.99673633
v 0.00000000 0.19807084 0.99576938
v -0.03880511 0.19508645 0.99998018
v -0.07621725 0.18400472 1.00127145
v -0.11011336 0.16479629 0.99641273
v -0.14073721 0.14073721 1.00060380
v -0.16570240 0.11071881 1.00189137
v -0.18405148 0.07623662 1.00152588
v -0.19354326 0.03849815 0.99207002
v -0.19652952 0.00000000 0.98802061
v -0.38916598 -0.00000000 0.93952978
v -0.37404214 -0.07440161 0.92070878
v -0.34968068 -0.14484248 0.91375966
v -0.31251233 -0.20881406 0.90739517
v -0.26565907 -0.26565907 0.90701680
v -0.21017630 -0.31455106 0.91331473
v -0.14243653 -0.34387221 0.89858139
v -0.07253480 -0.36465708 0.89760734
v 0.00000000 -0.37329706 0.90121881
v 0.07310511 -0.36752421 0.90466482
v 0.14387851 -0.34735344 0.90767828
v 0.20931466 -0.31326153 0.90957050
v 0.27008452 -0.27008452 0.92212625
v 0.31735344 -0.21204879 0.92145158
v 0.35268296 -0.14608606 0.92160498
v 0.37517902 -0.07462775 0.92350722
v 0.38121238 0.00000000 0.92032810
v 0.37255098 0.07410500 0.91703827
v 0.35244392 0.14598705 0.92098036
v 0.31954731 0.21351469 0.92782159
v 0.27357047 0.27357047 0.93402799
v 0.21453455 0.32107365 0.93225338
v 0.14815762 0.35768414 0.93467369
v 0.07610072 0.38258416 0.94173503
v 0.00000000 0.39488276 0.95333131
v -0.07709726 0.38759409 0.95406704
v -0.15006117 0.36227972 0.94668254
v -0.21654950 0.32408924 0.94100929
v -0.27435373 0.27435373 0.93670222
v -0.32487681 0.21707574 0.94329605
v -0.36448400 0.15097422 0.95244260
v -0.38654514 0.07688861 0.95148504
v -0.38943578 0.00000000 0.94018115
v -0.55441648 -0.00000000 0.82974290
v -0.54518750 -0.10844454 0.83191578
v -0.51534666 -0.21346357 0.83481747
v -0.46079158 -0.30789109 0.82940293
v -0.39025408 -0.39025408 0.82598063
v -0.30611712 -0.45813665 0.82462418
v -0.21250039 -0.51302133 0.83105064
v -0.10798298 -0.54286708 0.82837500
v 0.00000000 -0.55558010 0.83148438
v 0.10772311 -0.54156065 0.82638148
v 0.21003871 -0.50707831 0.82142346
v 0.30574587 -0.45758102 0.82362408
v 0.38811577 -0.38811577 0.82145486
v 0.45767027 -0.30580550 0.82378472
v 0.50810722 -0.21046490 0.82309020
v 0.54644963 -0.10869559 0.83384171
v 0.55376220 0.00000000 0.82876370
v 0.54166041 0.10774295 0.82653371
v 0.51514320 0.21337930 0.83448788
v 0.46455990 0.31040900 0.83618574
v 0.39632725 0.39632725 0.83883461
v 0.31312928 0.46863108 0.84351366
v 0.21659677 0.52291087 0.84707085
v 0.11078139 0.55693565 0.84984259
v 0.00000000 0.56985377 0.85284643
v -0.11205101 0.56331848 0.85958231
v -0.21936784 0.52960081 0.85790799
v -0.31676090 0.47406620 0.85329661
v -0.40032547 0.40032547 0.84729693
v -0.47167758 0.31516488 0.84899721
v -0.51857519 0.21480088 0.84004743
v -0.54606494 0.10861907 0.83325468
v -0.55414619 0.00000000 0.82933838
v -0.70681355 -0.00000000 0.70681355
v -0.69753610 -0.13874856 0.71120164
v -0.66127153 -0.27390764 0.71575515
v -0.59743387 -0.39919255 0.71852760
v -0.50763702 -0.50763702 0.71790716
v -0.39975473 -0.59827523 0.71953950
v -0.27666195 -0.66792104 0.72295252
v -0.14171403 -0.71244454 0.72640215
v 0.00000000 -0.72398086 0.72398086
v 0.14004212 -0.70403927 0.71783222
v 0.27470997 -0.66320855 0.71785176
v 0.39591246 -0.59252487 0.71262360
v 0.50239911 -0.50239911 0.71049964
v 0.58558124 -0.39127288 0.70427257
v 0.64550166 -0.26737554 0.69868597
v 0.68549763 -0.13635396 0.69892732
v 0.70486032 0.00000000 0.70486032
v 0.69583857 0.13841090 0.70947086
v 0.65346598 0.27067447 0.70730648
v 0.59448623 0.39722300 0.71498251
v 0.50623660 0.50623660 0.71592667
v 0.39702962 0.59419681 0.71463443
v 0.27261048 0.65813992 0.71236551
v 0.13939604 0.70079122 0.71452054
v 0.00000000 0.72555453 0.72555453
v -0.14168238 0.71228540 0.72623990
v -0.27879539 0.67307162 0.72852747
v -0.40307174 0.60323949 0.72550996
v -0.51246747 0.51246747 0.72473844
v -0.60080052 0.40144207 0.72257664
v -0.66443991 0.27522002 0.71918457
v -0.69742565 0.13872659 0.71108903
v -0.70710736 0.00000000 0.70710736
v -0.84428778 -0.00000000 0.56413506
v -0.82145311 -0.16339718 0.55963056
v -0.77421732 -0.32069132 0.55993824
v -0.70807914 -0.47312336 0.56902062
v -0.60094060 -0.60094060 0.56785719
v -0.47456762 -0.71024064 0.57075763
v -0.32987242 -0.79638248 0.57596877
v -0.16866857 -0.84795418 0.57768492
v 0.00000000 -0.86755827 0.57968390
v 0.16738065 -0.84147937 0.57327383
v 0.32642751 -0.78806572 0.56995383
v 0.47355565 -0.70872612 0.56954054
v 0.60239006 -0.60239006 0.56922685
v 0.70181219 -0.46893591 0.56398443
v 0.77768311 -0.32212689 0.56244480
v 0.81965170 -0.16303886 0.55840332
v 0.83340491 0.00000000 0.55686336
v 0.81543262 0.16219963 0.55552899
v 0.77320677 0.32027273 0.55920737
v 0.69575089 0.46488588 0.55911350
v 0.59289585 0.59289585 0.56025533
v 0.46495629 0.69585626 0.55919818
v 0.32079441 0.77446622 0.56011825
v 0.16342622 0.82159911 0.55973003
v 0.00000000 0.84291188 0.56321571
v -0.16410686 0.82502091 0.56206120
v -0.32523941 0.78519740 0.56787937
v -0.47142447 0.70553657 0.56697739
v -0.59505553 0.59505553 0.56229612
v -0.70464151 0.47082640 0.56625810
v -0.77938699 0.32283266 0.56367710
v -0.82471612 0.16404624 0.56185355
v -0.84435662 0.00000000 0.56418105
v -0.93889769 -0.00000000 0.38890416
v -0.91545434 -0.18209519 0.38662244
v -0.86069081 -0.35650981 0.38588344
v -0.77868693 -0.52030197 0.38791879
v -0.66303484 -0.66303484 0.38839681
v -0.52420408 -0.78452685 0.39082806
v -0.36417439 -0.87919474 0.39417952
v -0.18640393 -0.93711584 0.39577071
v 0.00000000 -0.95403420 0.39517390
v 0.18713323 -0.94078226 0.39731915
v 0.36679378 -0.88551851 0.39701472
v 0.52253418 -0.78202766 0.38958304
v 0.66509976 -0.66509976 0.38960642
v 0.77606347 -0.51854904 0.38661186
v 0.86073829 -0.35652947 0.38590472
v 0.91198648 -0.18140539 0.38515787
v 0.92564325 0.00000000 0.38341399
v 0.91396424 0.18179879 0.38599313
v 0.86488021 0.35824511 0.38776172
v 0.77477952 0.51769112 0.38597224
v 0.66067963 0.66067963 0.38701717
v 0.52259354 0.78211650 0.38962730
v 0.35725535 0.86249071 0.38669040
v 0.18210765 0.91551700 0.38664891
v 0.00000000 0.92968570 0.38508843
v -0.18187689 0.91435687 0.38615895
v -0.35695855 0.86177416 0.38636915
v -0.51508865 0.77088465 0.38403193
v -0.65702862 0.65702862 0.38487845
v -0.77445680 0.51747549 0.38581146
v -0.86938410 0.36011068 0.38978100
v -0.92634375 0.18426123 0.39122135
v -0.93940482 0.00000000 0.38911422
v -0.98960471 -0.00000000 0.19684462
v -0.97300460 -0.19354265 0.19733437
v -0.91251875 -0.37797764 0.19646638
v -0.82626794 -0.55209458 0.19766797
v -0.70878664 -0.70878664 0.19938492
v -0.55753075 -0.83440374 0.19961430
v -0.38330625 -0.92538315 0.19923610
v -0.19459377 -0.97828892 0.19840608
v 0.00000000 -1.00326424 0.19956166
v 0.19610683 -0.98589563 0.19994879
v 0.38506828 -0.92963707 0.20015197
v 0.55680596 -0.83331900 0.19935480
v 0.70572970 -0.70572970 0.19852499
v 0.82878009 -0.55377315 0.19826895
v 0.92340489 -0.38248683 0.19881018
v 0.98069407 -0.19507218 0.19889387
v 0.99875443 0.00000000 0.19866461
v 0.98091913 0.19511695 0.19893951
v 0.92554833 0.38337467 0.19927166
v 0.83219352 0.55605393 0.19908555
v 0.70946488 0.70946488 0.19957571
v 0.54987704 0.82294914 0.19687402
v 0.38061532 0.91888666 0.19783740
v 0.19209466 0.96572508 0.19585802
v 0.00000000 0.97067591 0.19307944
v -0.18746303 0.94244029 0.19113565
v -0.36780302 0.88795505 0.19117778
v -0.54177025 0.81081648 0.19397152
v -0.69416669 0.69416669 0.19527226
v -0.82290569 0.54984800 0.19686362
v -0.92107922 0.38152351 0.19830946
v -0.97363070 0.19366719 0.19746135
v -0.98959041 0.00000000 0.19684177
v -1.01337312 -0.00000000 0.00000000
v -1.00608463 -0.20012268 0.00000000
v -0.94340537 -0.39077130 0.00000000
v -0.85010796 -0.56802398 0.00000000
v -0.72800501 -0.72800501 0.00000000
v -0.57005930 -0.85315404 0.00000000
v -0.39103392 -0.94403939 0.00000000
v -0.19927328 -1.00181444 0.00000000
v 0.00000000 -1.02097892 0.00000000
v 0.20227893 -1.01692486 0.00000000
v 0.39449835 -0.95240326 0.00000000
v 0.56876296 -0.85121392 0.00000000
v 0.72007643 -0.72007643 0.00000000
v 0.84741628 -0.56622545 0.00000000
v 0.93083747 -0.38556550 0.00000000
v 0.98092846 -0.19511880 0.00000000
v 1.00297853 0.00000000 0.00000000
v 0.98680413 0.19628755 0.00000000
v 0.94100953 0.38977891 0.00000000
v 0.84789646 0.56654630 0.00000000
v 0.71117876 0.71117876 0.00000000
v 0.56084978 0.83937101 0.00000000
v 0.38547010 0.93060715 0.00000000
v 0.19629371 0.98683511 0.00000000
v 0.00000000 1.00336063 0.00000000
v -0.19730770 0.99193282 0.00000000
v -0.38399910 0.92705584 0.00000000
v -0.55450739 0.82987896 0.00000000
v -0.70816426 0.70816426 0.00000000
v -0.84131012 0.56214545 0.00000000
v -0.93667295 0.38798264 0.00000000
v -0.98684558 0.19629579 0.00000000
v -1.01347020 0.00000000 0.00000000
v -0.98875532 -0.00000000 -0.19667566
v -0.97181618 -0.19330626 -0.19709335
v -0.92020406 -0.38116100 -0.19812103
v -0.83045234 -0.55489051 -0.19866900
v -0.70454058 -0.70454058 -0.19819048
v -0.55064652 -0.82410075 -0.19714952
v -0.38091785 -0.91961704 -0.19799465
v -0.19453574 -0.97799723 -0.19834692
v 0.00000000 -1.00455556 -0.19981852
v 0.19580212 -0.98436373 -0.19963811
v 0.38406617 -0.92721776 -0.19963109
v 0.55271426 -0.82719534 -0.19788983
v 0.70578804 -0.70578804 -0.19854140
v 0.82880751 -0.55379148 -0.19827551
v 0.91398106 -0.37858335 -0.19678122
v 0.97156596 -0.19325649 -0.19704260
v 0.99119063 0.00000000 -0.19716007
v 0.96847182 0.19264102 -0.19641508
v 0.91572664 0.37930639 -0.19715704
v 0.83079229 0.55511766 -0.19875033
v 0.70479189 0.70479189 -0.19826118
v 0.54722613 0.81898178 -0.19592491
v 0.37485762 0.90498635 -0.19484464
v 0.19053833 0.95790088 -0.19427120
v 0.00000000 0.98167720 -0.19526774
v -0.19043218 0.95736722 -0.19416297
v -0.36633145 0.88440235 -0.19041288
v -0.53522778 0.80102497 -0.19162910
v -0.68873078 0.68873078 -0.19374312
v -0.81560707 0.54497122 -0.19511757
v -0.91270725 0.37805572 -0.19650696
v -0.96469307 0.19188938 -0.19564872
v -0.98789531 0.00000000 -0.19650460
v -0.93269330 -0.00000000 -0.38633422
v -0.91701171 -0.18240497 -0.38728017
v -0.87357631 -0.36184716 -0.39166054
v -0.78616999 -0.52530199 -0.39164663
v -0.66773433 -0.66773433 -0.39114972
v -0.52575969 -0.78685498 -0.39198787
v -0.35810685 -0.86454642 -0.38761206
v -0.18228124 -0.91638970 -0.38701747
v 0.00000000 -0.92571538 -0.38344386
v 0.18040978 -0.90698119 -0.38304399
v 0.35456634 -0.85599888 -0.38377985
v 0.51657013 -0.77310184 -0.38513646
v 0.65286108 -0.65286108 -0.38243717
v 0.76729017 -0.51268690 -0.38224126
v 0.85409616 -0.35377821 -0.38292678
v 0.91248750 -0.18150505 -0.38536946
v 0.92978723 0.00000000 -0.38513048
v 0.91684648 0.18237210 -0.38721038
v 0.86252946 0.35727140 -0.38670778
v 0.77401640 0.51718122 -0.38559207
v 0.64933499 0.64933499 -0.38037163
v 0.51424991 0.76962938 -0.38340659
v 0.35383642 0.85423668 -0.38298978
v 0.17967498 0.90328713 -0.38148388
v 0.00000000 0.92298328 -0.38231219
v -0.17872475 0.89851000 -0.37946637
v -0.34503603 0.83299065 -0.37346430
v -0.50408164 0.75441148 -0.37582548
v -0.64291050 0.64291050 -0.37660825
v -0.76692879 0.51244544 -0.38206123
v -0.84829571 0.35137559 -0.38032619
v -0.90508870 0.18003334 -0.38224474
v -0.93266338 0.00000000 -0.38632182
v -0.83230813 -0.00000000 -0.55613051
v -0.81688143 -0.16248782 -0.55651602
v -0.77069034 -0.31923039 -0.55738741
v -0.69315997 -0.46315469 -0.55703141
v -0.59673021 -0.59673021 -0.56387860
v -0.46543394 -0.69657112 -0.55977264
v -0.32043781 -0.77360530 -0.55949560
v -0.16250124 -0.81694891 -0.55656199
v 0.00000000 -0.83689715 -0.55919680
v 0.16318729 -0.82039793 -0.55891170
v 0.31878628 -0.76961816 -0.55661198
v 0.46249671 -0.69217524 -0.55624006
v 0.58862922 -0.58862922 -0.55622359
v 0.69371510 -0.46352561 -0.55747751
v 0.76910866 -0.31857524 -0.55624349
v 0.81470243 -0.16205439 -0.55503153
v 0.83447875 0.00000000 -0.55758088
v 0.81987041 0.16308236 -0.55855232
v 0.77347625 0.32038435 -0.55940227
v 0.69415794 0.46382151 -0.55783339
v 0.59045507 0.59045507 -0.55794892
v 0.46678805 0.69859768 -0.56140121
v 0.31820205 0.76820770 -0.55559189
v 0.16341072 0.82152118 -0.55967694
v 0.00000000 0.84066310 -0.56171312
v -0.16228066 0.81583999 -0.55580652
v -0.31600518 0.76290399 -0.55175608
v -0.46277566 0.69259272 -0.55657556
v -0.58645707 0.58645707 -0.55417102
v -0.68123156 0.45518438 -0.54744559
v -0.75964063 0.31465345 -0.54939592
v -0.81762980 0.16263668 -0.55702586
v -0.83289285 0.00000000 -0.55652121
v -0.70174493 -0.00000000 -0.70174493
v -0.69195993 -0.13763939 -0.70551623
v -0.65486608 -0.27125441 -0.70882193
v -0.58855799 -0.39326188 -0.70785268
v -0.50048807 -0.50048807 -0.70779701
v -0.39343884 -0.58882284 -0.70817121
v -0.27073069 -0.65360171 -0.70745339
v -0.13827626 -0.69516171 -0.70878074
v 0.00000000 -0.71438071 -0.71438071
v 0.14009320 -0.70429609 -0.71809406
v 0.27434890 -0.66233683 -0.71690822
v 0.39723748 -0.59450790 -0.71500857
v 0.50080826 -0.50080826 -0.70824984
v 0.59101477 -0.39490344 -0.71080742
v 0.65715219 -0.27220135 -0.71129641
v 0.69901906 -0.13904354 -0.71271365
v 0.70757207 0.00000000 -0.70757207
v 0.69287589 0.13782158 -0.70645013
v 0.65645452 0.27191236 -0.71054125
v 0.58786338 0.39279775 -0.70701728
v 0.49980145 0.49980145 -0.70682599
v 0.39602973 0.59270038 -0.71283468
v 0.27379083 0.66098953 -0.71544991
v 0.13885989 0.69809580 -0.71177230
v 0.00000000 0.71192037 -0.71192037
v -0.13752035 0.69136151 -0.70490608
v -0.26918197 0.64986277 -0.70340640
v -0.38875483 0.58181272 -0.69974021
v -0.49372769 0.49372769 -0.69823639
v -0.57669874 0.38533778 -0.69358968
v -0.64440940 0.26692311 -0.69750371
v -0.68624332 0.13650228 -0.69968762
v -0.70179223 0.00000000 -0.70179223
v -0.55076600 -0.00000000 -0.82427958
v -0.53969265 -0.10735154 -0.82353105
v -0.51272477 -0.21237755 -0.83057023
v -0.46279090 -0.30922700 -0.83300162
v -0.39490560 -0.39490560 -0.83582568
v -0.31183424 -0.46669292 -0.84002505
v -0.21432655 -0.51743006 -0.83819241
v -0.10892804 -0.54761825 -0.83562492
v 0.00000000 -0.56001293 -0.83811858
v 0.10921904 -0.54908118 -0.83785725
v 0.21275016 -0.51362432 -0.83202743
v 0.31042772 -0.46458792 -0.83623615
v 0.39753962 -0.39753962 -0.84140063
v 0.46392853 -0.30998713 -0.83504929
v 0.50858801 -0.21066405 -0.82386904
v 0.54012349 -0.10743724 -0.82418848
v 0.54476027 0.00000000 -0.81529136
v 0.53730812 0.10687723 -0.81989244
v 0.50211686 0.20798361 -0.81338633
v 0.45441186 0.30362830 -0.81791975
v 0.39127177 0.39127177 -0.82813459
v 0.30820312 0.46125856 -0.83024348
v 0.21336015 0.51509697 -0.83441300
v 0.10936999 0.54984008 -0.83901527
v 0.00000000 0.56035426 -0.83862941
v -0.10897992 0.54787907 -0.83602292
v -0.21310154 0.51447263 -0.83340163
v -0.30563109 0.45740925 -0.82331489
v -0.38652243 0.38652243 -0.81808251
v -0.45887025 0.30660730 -0.82594462
v -0.51204481 0.21209590 -0.82946876
v -0.54276231 0.10796214 -0.82821512
v -0.55084113 0.00000000 -0.82439201
v -0.37931762 -0.00000000 -0.91575374
v -0.37252239 -0.07409931 -0.91696789
v -0.35645806 -0.14764976 -0.93146981
v -0.32238039 -0.21540769 -0.93604756
v -0.27268825 -0.27268825 -0.93101592
v -0.21390849 -0.32013668 -0.92953284
v -0.14848174 -0.35846663 -0.93671844
v -0.07571064 -0.38062310 -0.93690786
v 0.00000000 -0.38899129 -0.93910804
v 0.07534611 -0.37879047 -0.93239683
v 0.14820547 -0.35779966 -0.93497557
v 0.21666970 -0.32426912 -0.94153159
v 0.27475870 -0.27475870 -0.93808487
v 0.32096623 -0.21446278 -0.93194148
v 0.35044293 -0.14515821 -0.91575150
v 0.36423527 -0.07245090 -0.89656905
v 0.37326273 0.00000000 -0.90113594
v 0.35999247 0.07160696 -0.88612536
v 0.33949649 0.14062405 -0.88714707
v 0.31002109 0.20714947 -0.90016171
v 0.26767923 0.26767923 -0.91391405
v 0.21102313 0.31581843 -0.91699459
v 0.14545182 0.35115175 -0.91760375
v 0.07353797 0.36970032 -0.91002132
v 0.00000000 0.38078613 -0.91929903
v -0.07414666 0.37276041 -0.91755378
v -0.14499002 0.35003686 -0.91469041
v -0.21086010 0.31557445 -0.91628617
v -0.26844189 0.26844189 -0.91651795
v -0.31687793 0.21173107 -0.92007091
v -0.35164738 0.14565711 -0.91889888
v -0.37324033 0.07424212 -0.91873511
v -0.37978898 0.00000000 -0.91689171
v -0.19173581 -0.00000000 -0.96392103
v -0.19028754 -0.03785055 -0.97538177
v -0.18099752 -0.07497163 -0.98490758
v -0.16389932 -0.10951403 -0.99098935
v -0.13887058 -0.13887058 -0.98733257
v -0.10876908 -0.16278443 -0.98424837
v -0.07502871 -0.18113532 -0.98565747
v -0.03831768 -0.19263597 -0.98741939
v 0.00000000 -0.19572868 -0.98399455
v 0.03832852 -0.19269048 -0.98769884
v 0.07597209 -0.18341285 -0.99805074
v 0.11017877 -0.16489418 -0.99700457
v 0.14049630 -0.14049630 -0.99889102
v 0.16452300 -0.10993075 -0.99476031
v 0.18108919 -0.07500960 -0.98540643
v 0.18940590 -0.03767518 -0.97086260
v 0.19029969 0.00000000 -0.95670116
v 0.18645787 0.03708878 -0.95575153
v 0.17434486 0.07221600 -0.94870680
v 0.15765819 0.10534383 -0.95325338
v 0.13583249 0.13583249 -0.96573257
v 0.10659689 0.15953351 -0.96459224
v 0.07347410 0.17738217 -0.96523449
v 0.03750413 0.18854598 -0.96645481
v 0.00000000 0.19309843 -0.97077138
v -0.03736467 0.18784489 -0.96286113
v -0.07335791 0.17710166 -0.96370810
v -0.10611927 0.15881872 -0.96027034
v -0.13522406 0.13522406 -0.96140677
v -0.15987519 0.10682519 -0.96665813
v -0.17803910 0.07374621 -0.96880923
v -0.18831759 0.03745870 -0.96528410
v -0.19169843 0.00000000 -0.96373307
v -0.00000000 -0.00000000 -0.99724432
v -0.00000000 -0.00000000 -0.99724432
v -0.00000000 -0.00000000 -0.99724432
v -0.00000000 -0.00000000 -0.99724659
v -0.00000000 -0.00000000 -0.99732170
v -0.00000000 -0.00000000 -0.99774916
v -0.00000000 -0.00000000 -0.99868742
v -0.00000000 -0.00000000 -0.99891342
v 0.00000000 -0.00000000 -0.99820286
v 0.00000000 -0.00000000 -0.99796133
v 0.00000000 -0.00000000 -0.99780541
v 0.00000000 -0.00000000 -0.99739015
v 0.00000000 -0.00000000 -0.99711521
v 0.00000000 -0.00000000 -0.99729034
v 0.00000000 -0.00000000 -0.99792280
v 0.00000000 -0.00000000 -0.99796335
v 0.00000000 0.00000000 -0.99732501
v 0.00000000 0.00000000 -0.99724525
v 0.00000000 0.00000000 -0.99724432
v 0.00000000 0.00000000 -0.99724432
v 0.00000000 0.00000000 -0.99724432
v 0.00000000 0.00000000 -0.99724432
v 0.00000000 0.00000000 -0.99724432
v 0.00000000 0.00000000 -0.99724432
v 0.00000000 0.00000000 -0.99724432
v -0.00000000 0.00000000 -0.99724432
v -0.00000000 0.00000000 -0.99724432
v -0.00000000 0.00000000 -0.99724432
v -0.00000000 0.00000000 -0.99724432
v -0.00000000 0.00000000 -0.99724432
v -0.00000000 0.00000000 -0.99724432
v -0.00000000 0.00000000 -0.99724432
v -0.00000000 0.00000000 -0.99724432
vt 0.00000000 1.00000000
vt 0.03125000 1.00000000
vt 0.06250000 1.00000000
vt 0.09375000 1.00000000
vt 0.12500000 1.00000000
vt 0.15625000 1.00000000
vt 0.18750000 1.00000000
vt 0.21875000 1.00000000
vt 0.25000000 1.00000000
vt 0.28125000 1.00000000
vt 0.31250000 1.00000000
vt 0.34375000 1.00000000
vt 0.37500000 1.00000000
vt 0.40625000 1.00000000
vt 0.43750000 1.00000000
vt 0.46875000 1.00000000
vt 0.50000000 1.00000000
vt 0.53125000 1.00000000
vt 0.56250000 1.00000000
vt 0.59375000 1.00000000
vt 0.62500000 1.00000000
vt 0.65625000 1.00000000
vt 0.68750000 1.00000000
vt 0.71875000 1.00000000
vt 0.75000000 1.00000000
vt 0.78125000 1.00000000
vt 0.81250000 1.00000000
vt 0.84375000 1.00000000
vt 0.87500000 1.00000000
vt 0.90625000 1.00000000
vt 0.93750000 1.00000000
vt 0.96875000 1.00000000
vt 1.00000000 1.00000000
vt 0.00000000 0.93750000
vt 0.03125000 0.93750000
vt 0.06250000 0.93750000
vt 0.09375000 0.93750000
vt 0.12500000 0.93750000
vt 0.15625000 0.93750000
vt 0.18750000 0.93750000
vt 0.21875000 0.93750000
vt 0.25000000 0.93750000
vt 0.28125000 0.93750000
vt 0.31250000 0.93750000
vt 0.34375000 0.93750000
vt 0.37500000 0.93750000
vt 0.40625000 0.93750000
vt 0.43750000 0.93750000
vt 0.46875000 0.93750000
vt 0.50000000 0.93750000
vt 0.53125000 0.93750000
vt 0.56250000 0.93750000
vt 0.59375000 0.93750000
vt 0.62500000 0.93750000
vt 0.65625000 0.93750000
vt 0.68750000 0.93750000
vt 0.71875000 0.93750000
vt 0.75000000 0.93750000
vt 0.78125000 0.93750000
vt 0.81250000 0.93750000
vt 0.84375000 0.93750000
vt 0.87500000 0.93750000
vt 0.90625000 0.93750000
vt 0.93750000 0.93750000
vt 0.96875000 0.93750000
vt 1.00000000 0.93750000
vt 0.00000000 0.87500000
vt 0.03125000 0.87500000
vt 0.06250000 0.87500000
vt 0.09375000 0.87500000
vt 0.12500000 0.87500000
vt 0.15625000 0.87500000
vt 0.18750000 0.87500000
vt 0.21875000 0.87500000
vt 0.25000000 0.87500000
vt 0.28125000 0.87500000
vt 0.31250000 0.87500000
vt 0.34375000 0.87500000
vt 0.37500000 0.87500000
vt 0.40625000 0.87500000
vt 0.43750000 0.87500000
vt 0.46875000 0.87500000
vt 0.50000000 0.87500000
vt 0.53125000 0.87500000
vt 0.56250000 0.87500000
vt 0.59375000 0.87500000
vt 0.62500000 0.87500000
vt 0.65625000 0.87500000
vt 0.68750000 0.87500000
vt 0.71875000 0.87500000
vt 0.75000000 0.87500000
vt 0.78125000 0.87500000
vt 0.81250000 0.87500000
vt 0.84375000 0.87500000
vt 0.87500000 0.87500000
vt 0.90625000 0.87500000
vt 0.93750000 0.87500000
vt 0.96875000 0.87500000
vt 1.00000000 0.87500000
vt 0.00000000 0.81250000
vt 0.03125000 0.81250000
vt 0.06250000 0.81250000
vt 0.09375000 0.81250000
vt 0.12500000 0.81250000
vt 0.15625000 0.81250000
vt 0.18750000 0.81250000
vt 0.21875000 0.81250000
vt 0.25000000 0.81250000
vt 0.28125000 0.81250000
vt 0.31250000 0.81250000
vt 0.34375000 0.81250000
vt 0.37500000 0.81250000
vt 0.40625000 0.81250000
vt 0.43750000 0.81250000
vt 0.46875000 0.81250000
vt 0.50000000 0.81250000
vt 0.53125000 0.81250000
vt 0.56250000 0.81250000
vt 0.59375000 0.81250000
vt 0.62500000 0.81250000
vt 0.65625000 0.81250000
vt 0.68750000 0.81250000
vt 0.71875000 0.81250000
vt 0.75000000 0.81250000
vt 0.78125000 0.81250000
vt 0.81250000 0.81250000
vt 0.84375000 0.81250000
vt 0.87500000 0.81250000
vt 0.90625000 0.81250000
vt 0.93750000 0.81250000
vt 0.96875000 0.81250000
vt 1.00000000 0.81250000
vt 0.00000000 0.75000000
vt 0.03125000 0.75000000
vt 0.06250000 0.75000000
vt 0.09375000 0.75000000
vt 0.12500000 0.75000000
vt 0.15625000 0.75000000
vt 0.18750000 0.75000000
vt 0.21875000 0.75000000
vt 0.25000000 0.75000000
vt 0.28125000 0.75000000
vt 0.31250000 0.75000000
vt 0.34375000 0.75000000
vt 0.37500000 0.75000000
vt 0.40625000 0.75000000
vt 0.43750000 0.75000000
vt 0.46875000 0.75000000
vt 0.50000000 0.75000000
vt 0.53125000 0.75000000
vt 0.56250000 0.75000000
vt 0.59375000 0.75000000
vt 0.62500000 0.75000000
vt 0.65625000 0.75000000
vt 0.68750000 0.75000000
vt 0.71875000 0.75000000
vt 0.75000000 0.75000000
vt 0.78125000 0.75000000
vt 0.81250000 0.75000000
vt 0.84375000 0.75000000
vt 0.87500000 0.75000000
vt 0.90625000 0.75000000
vt 0.93750000 0.75000000
vt 0.96875000 0.75000000
vt 1.00000000 0.75000000
vt 0.00000000 0.68750000
vt 0.03125000 0.68750000
vt 0.06250000 0.68750000
vt 0.09375000 0.68750000
vt 0.12500000 0.68750000
vt 0.15625000 0.68750000
vt 0.18750000 0.68750000
vt 0.21875000 0.68750000
vt 0.25000000 0.68750000
vt 0.28125000 0.68750000
vt 0.31250000 0.68750000
vt 0.34375000 0.68750000
vt 0.37500000 0.68750000
vt 0.40625000 0.68750000
vt 0.43750000 0.68750000
vt 0.46875000 0.68750000
vt 0.50000000 0.68750000
vt 0.53125000 0.68750000
vt 0.56250000 0.68750000
vt 0.59375000 0.68750000
vt 0.62500000 0.68750000
vt 0.65625000 0.68750000
vt 0.68750000 0.68750000
vt 0.71875000 0.68750000
vt 0.75000000 0.68750000
vt 0.78125000 0.68750000
vt 0.81250000 0.68750000
vt 0.84375000 0.68750000
vt 0.87500000 0.68750000
vt 0.90625000 0.68750000
vt 0.93750000 0.68750000
vt 0.96875000 0.68750000
vt 1.00000000 0.68750000
vt 0.00000000 0.62500000
vt 0.03125000 0.62500000
vt 0.06250000 0.62500000
vt 0.09375000 0.62500000
vt 0.12500000 0.62500000
vt 0.15625000 0.62500000
vt 0.18750000 0.62500000
vt 0.21875000 0.62500000
vt 0.25000000 0.62500000
vt 0.28125000 0.62500000
vt 0.31250000 0.62500000
vt 0.34375000 0.62500000
vt 0.37500000 0.62500000
vt 0.40625000 0.62500000
vt 0.43750000 0.62500000
vt 0.46875000 0.62500000
vt 0.50000000 0.62500000
vt 0.53125000 0.62500000
vt 0.56250000 0.62500000
vt 0.59375000 0.62500000
vt 0.62500000 0.62500000
vt 0.65625000 0.62500000
vt 0.68750000 0.62500000
vt 0.71875000 0.62500000
vt 0.75000000 0.62500000
vt 0.78125000 0.62500000
vt 0.81250000 0.62500000
vt 0.84375000 0.62500000
vt 0.87500000 0.62500000
vt 0.90625000 0.62500000
vt 0.93750000 0.62500000
vt 0.96875000 0.62500000
vt 1.00000000 0.62500000
vt 0.00000000 0.56250000
vt 0.03125000 0.56250000
vt 0.06250000 0.56250000
vt 0.09375000 0.56250000
vt 0.12500000 0.56250000
vt 0.15625000 0.56250000
vt 0.18750000 0.56250000
vt 0.21875000 0.56250000
vt 0.25000000 0.56250000
vt 0.28125000 0.56250000
vt 0.31250000 0.56250000
vt 0.34375000 0.56250000
vt 0.37500000 0.56250000
vt 0.40625000 0.56250000
vt 0.43750000 0.56250000
vt 0.46875000 0.56250000
vt 0.50000000 0.56250000
vt 0.53125000 0.56250000
vt 0.56250000 0.56250000
vt 0.59375000 0.56250000
vt 0.62500000 0.56250000
vt 0.65625000 0.56250000
vt 0.68750000 0.56250000
vt 0.71875000 0.56250000
vt 0.75000000 0.56250000
vt 0.78125000 0.56250000
vt 0.81250000 0.56250000
vt 0.84375000 0.56250000
vt 0.87500000 0.56250000
vt 0.90625000 0.56250000
vt 0.93750000 0.56250000
vt 0.96875000 0.56250000
vt 1.00000000 0.56250000
vt 0.00000000 0.50000000
vt 0.03125000 0.50000000
vt 0.06250000 0.50000000
vt 0.09375000 0.50000000
vt 0.12500000 0.50000000
vt 0.15625000 0.50000000
vt 0.18750000 0.50000000
vt 0.21875000 0.50000000
vt 0.25000000 0.50000000
vt 0.28125000 0.50000000
vt 0.31250000 0.50000000
vt 0.34375000 0.50000000
vt 0.37500000 0.50000000
vt 0.40625000 0.50000000
vt 0.43750000 0.50000000
vt 0.46875000 0.50000000
vt 0.50000000 0.50000000
vt 0.53125000 0.50000000
vt 0.56250000 0.50000000
vt 0.59375000 0.50000000
vt 0.62500000 0.50000000
vt 0.65625000 0.50000000
vt 0.68750000 0.50000000
vt 0.71875000 0.50000000
vt 0.75000000 0.50000000
vt 0.78125000 0.50000000
vt 0.81250000 0.50000000
vt 0.84375000 0.50000000
vt 0.87500000 0.50000000
vt 0.90625000 0.50000000
vt 0.93750000 0.50000000
vt 0.96875000 0.50000000
vt 1.00000000 0.50000000
vt 0.00000000 0.43750000
vt 0.03125000 0.43750000
vt 0.06250000 0.43750000
vt 0.09375000 0.43750000
vt 0.12500000 0.43750000
vt 0.15625000 0.43750000
vt 0.18750000 0.43750000
vt 0.21875000 0.43750000
vt 0.25000000 0.43750000
vt 0.28125000 0.43750000
vt 0.31250000 0.43750000
vt 0.34375000 0.43750000
vt 0.37500000 0.43750000
vt 0.40625000 0.43750000
vt 0.43750000 0.43750000
vt 0.46875000 0.43750000
vt 0.50000000 0.43750000
vt 0.53125000 0.43750000
vt 0.56250000 0.43750000
vt 0.59375000 0.43750000
vt 0.62500000 0.43750000
vt 0.65625000 0.43750000
vt 0.68750000 0.43750000
vt 0.71875000 0.43750000
vt 0.75000000 0.43750000
vt 0.78125000 0.43750000
vt 0.81250000 0.43750000
vt 0.84375000 0.43750000
vt 0.87500000 0.43750000
vt 0.90625000 0.43750000
vt 0.93750000 0.43750000
vt 0.96875000 0.43750000
vt 1.00000000 0.43750000
vt 0.00000000 0.37500000
vt 0.03125000 0.37500000
vt 0.06250000 0.37500000
vt 0.09375000 0.37500000
vt 0.12500000 0.37500000
vt 0.15625000 0.37500000
vt 0.18750000 0.37500000
vt 0.21875000 0.37500000
vt 0.25000000 0.37500000
vt 0.28125000 0.37500000
vt 0.31250000 0.37500000
vt 0.34375000 0.37500000
vt 0.37500000 0.37500000
vt 0.40625000 0.37500000
vt 0.43750000 0.37500000
vt 0.46875000 0.37500000
vt 0.50000000 0.37500000
vt 0.53125000 0.37500000
vt 0.56250000 0.37500000
vt 0.59375000 0.37500000
vt 0.62500000 0.37500000
vt 0.65625000 0.37500000
vt 0.68750000 0.37500000
vt 0.71875000 0.37500000
vt 0.75000000 0.37500000
vt 0.78125000 0.37500000
vt 0.81250000 0.37500000
vt 0.84375000 0.37500000
vt 0.87500000 0.37500000
vt 0.90625000 0.37500000
vt 0.93750000 0.37500000
vt 0.96875000 0.37500000
vt 1.00000000 0.37500000
vt 0.00000000 0.31250000
vt 0.03125000 0.31250000
vt 0.06250000 0.31250000
vt 0.09375000 0.31250000
vt 0.12500000 0.31250000
vt 0.15625000 0.31250000
vt 0.18750000 0.31250000
vt 0.21875000 0.31250000
vt 0.25000000 0.31250000
vt 0.28125000 0.31250000
vt 0.31250000 0.31250000
vt 0.34375000 0.31250000
vt 0.37500000 0.31250000
vt 0.40625000 0.31250000
vt 0.43750000 0.31250000
vt 0.46875000 0.31250000
vt 0.50000000 0.31250000
vt 0.53125000 0.31250000
vt 0.56250000 0.31250000
vt 0.59375000 0.31250000
vt 0.62500000 0.31250000
vt 0.65625000 0.31250000
vt 0.68750000 0.31250000
vt 0.71875000 0.31250000
vt 0.75000000 0.31250000
vt 0.78125000 0.31250000
vt 0.81250000 0.31250000
vt 0.84375000 0.31250000
vt 0.87500000 0.31250000
vt 0.90625000 0.31250000
vt 0.93750000 0.31250000
vt 0.96875000 0.31250000
vt 1.00000000 0.31250000
vt 0.00000000 0.25000000
vt 0.03125000 0.25000000
vt 0.06250000 0.25000000
vt 0.09375000 0.25000000
vt 0.12500000 0.25000000
vt 0.15625000 0.25000000
vt 0.18750000 0.25000000
vt 0.21875000 0.25000000
vt 0.25000000 0.25000000
vt 0.28125000 0.25000000
vt 0.31250000 0.25000000
vt 0.34375000 0.25000000
vt 0.37500000 0.25000000
vt 0.40625000 0.25000000
vt 0.43750000 0.25000000
vt 0.46875000 0.25000000
vt 0.50000000 0.25000000
vt 0.53125000 0.25000000
vt 0.56250000 0.25000000
vt 0.59375000 0.25000000
vt 0.62500000 0.25000000
vt 0.65625000 0.25000000
vt 0.68750000 0.25000000
vt 0.71875000 0.25000000
vt 0.75000000 0.25000000
vt 0.78125000 0.25000000
vt 0.81250000 0.25000000
vt 0.84375000 0.25000000
vt 0.87500000 0.25000000
vt 0.90625000 0.25000000
vt 0.93750000 0.25000000
vt 0.96875000 0.25000000
vt 1.00000000 0.25000000
vt 0.00000000 0.18750000
vt 0.03125000 0.18750000
vt 0.06250000 0.18750000
vt 0.09375000 0.18750000
vt 0.12500000 0.18750000
vt 0.15625000 0.18750000
vt 0.18750000 0.18750000
vt 0.21875000 0.18750000
vt 0.25000000 0.18750000
vt 0.28125000 0.18750000
vt 0.31250000 0.18750000
vt 0.34375000 0.18750000
vt 0.37500000 0.18750000
vt 0.40625000 0.18750000
vt 0.43750000 0.18750000
vt 0.46875000 0.18750000
vt 0.50000000 0.18750000
vt 0.53125000 0.18750000
vt 0.56250000 0.18750000
vt 0.59375000 0.18750000
vt 0.62500000 0.18750000
vt 0.65625000 0.18750000
vt 0.68750000 0.18750000
vt 0.71875000 0.18750000
vt 0.75000000 0.18750000
vt 0.78125000 0.18750000
vt 0.81250000 0.18750000
vt 0.84375000 0.18750000
vt 0.87500000 0.18750000
vt 0.90625000 0.18750000
vt 0.93750000 0.18750000
vt 0.96875000 0.18750000
vt 1.00000000 0.18750000
vt 0.00000000 0.12500000
vt 0.03125000 0.12500000
vt 0.06250000 0.12500000
vt 0.09375000 0.12500000
vt 0.12500000 0.12500000
vt 0.15625000 0.12500000
vt 0.18750000 0.12500000
vt 0.21875000 0.12500000
vt 0.25000000 0.12500000
vt 0.28125000 0.12500000
vt 0.31250000 0.12500000
vt 0.34375000 0.12500000
vt 0.37500000 0.12500000
vt 0.40625000 0.12500000
vt 0.43750000 0.12500000
vt 0.46875000 0.12500000
vt 0.50000000 0.12500000
vt 0.53125000 0.12500000
vt 0.56250000 0.12500000
vt 0.59375000 0.12500000
vt 0.62500000 0.12500000
vt 0.65625000 0.12500000
vt 0.68750000 0.12500000
vt 0.71875000 0.12500000
vt 0.75000000 0.12500000
vt 0.78125000 0.12500000
vt 0.81250000 0.12500000
vt 0.84375000 0.12500000
vt 0.87500000 0.12500000
vt 0.90625000 0.12500000
vt 0.93750000 0.12500000
vt 0.96875000 0.12500000
vt 1.00000000 0.12500000
vt 0.00000000 0.06250000
vt 0.03125000 0.06250000
vt 0.06250000 0.06250000
vt 0.09375000 0.06250000
vt 0.12500000 0.06250000
vt 0.15625000 0.06250000
vt 0.18750000 0.06250000
vt 0.21875000 0.06250000
vt 0.25000000 0.06250000
vt 0.28125000 0.06250000
vt 0.31250000 0.06250000
vt 0.34375000 0.06250000
vt 0.37500000 0.06250000
vt 0.40625000 0.06250000
vt 0.43750000 0.06250000
vt 0.46875000 0.06250000
vt 0.50000000 0.06250000
vt 0.53125000 0.06250000
vt 0.56250000 0.06250000
vt 0.59375000 0.06250000
vt 0.62500000 0.06250000
vt 0.65625000 0.06250000
vt 0.68750000 0.06250000
vt 0.71875000 0.06250000
vt 0.75000000 0.06250000
vt 0.78125000 0.06250000
vt 0.81250000 0.06250000
vt 0.84375000 0.06250000
vt 0.87500000 0.06250000
vt 0.90625000 0.06250000
vt 0.93750000 0.06250000
vt 0.96875000 0.06250000
vt 1.00000000 0.06250000
vt 0.00000000 0.00000000
vt 0.03125000 0.00000000
vt 0.06250000 0.00000000
vt 0.09375000 0.00000000
vt 0.12500000 0.00000000
vt 0.15625000 0.00000000
vt 0.18750000 0.00000000
vt 0.21875000 0.00000000
vt 0.25000000 0.00000000
vt 0.28125000 0.00000000
vt 0.31250000 0.00000000
vt 0.34375000 0.00000000
vt 0.37500000 0.00000000
vt 0.40625000 0.00000000
vt 0.43750000 0.00000000
vt 0.46875000 0.00000000
vt 0.50000000 0.00000000
vt 0.53125000 0.00000000
vt 0.56250000 0.00000000
vt 0.59375000 0.00000000
vt 0.62500000 0.00000000
vt 0.65625000 0.00000000
vt 0.68750000 0.00000000
vt 0.71875000 0.00000000
vt 0.75000000 0.00000000
vt 0.78125000 0.00000000
vt 0.81250000 0.00000000
vt 0.84375000 0.00000000
vt 0.87500000 0.00000000
vt 0.90625000 0.00000000
vt 0.93750000 0.00000000
vt 0.96875000 0.00000000
vt 1.00000000 0.00000000
f 2/2 35/35 34/34
f 3/3 36/36 35/35
f 4/4 37/37 36/36
f 5/5 38/38 37/37
f 6/6 39/39 38/38
f 7/7 40/40 39/39
f 8/8 41/41 40/40
f 9/9 42/42 41/41
f 10/10 43/43 42/42
f 11/11 44/44 43/43
f 12/12 45/45 44/44
f 13/13 46/46 45/45
f 14/14 47/47 46/46
f 15/15 48/48 47/47
f 16/16 49/49 48/48
f 17/17 50/50 49/49
f 18/18 51/51 50/50
f 19/19 52/52 51/51
f 20/20 53/53 52/52
f 21/21 54/54 53/53
f 22/22 55/55 54/54
f 23/23 56/56 55/55
f 24/24 57/57 56/56
f 25/25 58/58 57/57
f 26/26 59/59 58/58
f 27/27 60/60 59/59
f 28/28 61/61 60/60
f 29/29 62/62 61/61
f 30/30 63/63 62/62
f 31/31 64/64 63/63
f 32/32 65/65 64/64
f 33/33 66/66 65/65
f 34/34 35/35 67/67
f 35/35 68/68 67/67
f 35/35 36/36 68/68
f 36/36 69/69 68/68
f 36/36 37/37 69/69
f 37/37 70/70 69/69
f 37/37 38/38 70/70
f 38/38 71/71 70/70
f 38/38 39/39 71/71
f 39/39 72/72 71/71
f 39/39 40/40 72/72
f 40/40 73/73 72/72
f 40/40 41/41 73/73
f 41/41 74/74 73/73
f 41/41 42/42 74/74
f 42/42 75/75 74/74
f 42/42 43/43 75/75
f 43/43 76/76 75/75
f 43/43 44/44 76/76
f 44/44 77/77 76/76
f 44/44 45/45 77/77
f 45/45 78/78 77/77
f 45/45 46/46 78/78
f 46/46 79/79 78/78
f 46/46 47/47 79/79
f 47/47 80/80 79/79
f 47/47 48/48 80/80
f 48/48 81/81 80/80
f 48/48 49/49 81/81
f 49/49 82/82 81/81
f 49/49 50/50 82/82
f 50/50 83/83 82/82
f 50/50 51/51 83/83
f 51/51 84/84 83/83
f 51/51 52/52 84/84
f 52/52 85/85 84/84
f 52/52 53/53 85/85
f 53/53 86/86 85/85
f 53/53 54/54 86/86
f 54/54 87/87 86/86
f 54/54 55/55 87/87
f 55/55 88/88 87/87
f 55/55 56/56 88/88
f 56/56 89/89 88/88
f 56/56 57/57 89/89
f 57/57 90/90 89/89
f 57/57 58/58 90/90
f 58/58 91/91 90/90
f 58/58 59/59 91/91
f 59/59 92/92 91/91
f 59/59 60/60 92/92
f 60/60 93/93 92/92
f 60/60 61/61 93/93
f 61/61 94/94 93/93
f 61/61 62/62 94/94
f 62/62 95/95 94/94
f 62/62 63/63 95/95
f 63/63 96/96 95/95
f 63/63 64/64 96/96
f 64/64 97/97 96/96
f 64/64 65/65 97/97
f 65/65 98/98 97/97
f 65/65 66/66 98/98
f 66/66 99/99 98/98
f 67/67 68/68 100/100
f 68/68 101/101 100/100
f 68/68 69/69 101/101
f 69/69 102/102 101/101
f 69/69 70/70 102/102
f 70/70 103/103 102/102
f 70/70 71/71 103/103
f 71/71 104/104 103/103
f 71/71 72/72 104/104
f 72/72 105/105 104/104
f 72/72 73/73 105/105
f 73/73 106/106 105/105
f 73/73 74/74 106/106
f 74/74 107/107 106/106
f 74/74 75/75 107/107
f 75/75 108/108 107/107
f 75/75 76/76 108/108
f 76/76 109/109 108/108
f 76/76 77/77 109/109
f 77/77 110/110 109/109
f 77/77 78/78 110/110
f 78/78 111/111 110/110
f 78/78 79/79 111/111
f 79/79 112/112 111/111
f 79/79 80/80 112/112
f 80/80 113/113 112/112
f 80/80 81/81 113/113
f 81/81 114/114 113/113
f 81/81 82/82 114/114
f 82/82 115/115 114/114
f 82/82 83/83 115/115
f 83/83 116/116 115/115
f 83/83 84/84 116/116
f 84/84 117/117 116/116
f 84/84 85/85 117/117
f 85/85 118/118 117/117
f 85/85 86/86 118/118
f 86/86 119/119 118/118
f 86/86 87/87 119/119
f 87/87 120/120 119/119
f 87/87 88/88 120/120
f 88/88 121/121 120/120
f 88/88 89/89 121/121
f 89/89 122/122 121/121
f 89/89 90/90 122/122
f 90/90 123/123 122/122
f 90/90 91/91 123/123
f 91/91 124/124 123/123
f 91/91 92/92 124/124
f 92/92 125/125 124/124
f 92/92 93/93 125/125
f 93/93 126/126 125/125
f 93/93 94/94 126/126
f 94/94 127/127 126/126
f 94/94 95/95 127/127
f 95/95 128/128 127/127
f 95/95 96/96 128/128
f 96/96 129/129 128/128
f 96/96 97/97 129/129
f 97/97 130/130 129/129
f 97/97 98/98 130/130
f 98/98 131/131 130/130
f 98/98 99/99 131/131
f 99/99 132/132 131/131
f 100/100 101/101 133/133
f 101/101 134/134 133/133
f 101/101 102/102 134/134
f 102/102 135/135 134/134
f 102/102 103/103 135/135
f 103/103 136/136 135/135
f 103/103 104/104 136/136
f 104/104 137/137 136/136
f 104/104 105/105 137/137
f 105/105 138/138 137/137
f 105/105 106/106 138/138
f 106/106 139/139 138/138
f 106/106 107/107 139/139
f 107/107 140/140 139/139
f 107/107 108/108 140/140
f 108/108 141/141 140/140
f 108/108 109/109 141/141
f 109/109 142/142 141/141
f 109/109 110/110 142/142
f 110/110 143/143 142/142
f 110/110 111/111 143/143
f 111/111 144/144 143/143
f 111/111 112/112 144/144
f 112/112 145/145 144/144
f 112/112 113/113 145/145
f 113/113 146/146 145/145
f 113/113 114/114 146/146
f 114/114 147/147 146/146
f 114/114 115/115 147/147
f 115/115 148/148 147/147
f 115/115 116/116 148/148
f 116/116 149/149 148/148
f 116/116 117/117 149/149
f 117/117 150/150 149/149
f 117/117 118/118 150/150
f 118/118 151/151 150/150
f 118/118 119/119 151/151
f 119/119 152/152 151/151
f 119/119 120/120 152/152
f 120/120 153/153 152/152
f 120/120 121/121 153/153
f 121/121 154/154 153/153
f 121/121 122/122 154/154
f 122/122 155/155 154/154
f 122/122 123/123 155/155
f 123/123 156/156 155/155
f 123/123 124/124 156/156
f 124/124 157/157 156/156
f 124/124 125/125 157/157
f 125/125 158/158 157/157
f 125/125 126/126 158/158
f 126/126 159/159 158/158
f 126/126 127/127 159/159
f 127/127 160/160 159/159
f 127/127 128/128 160/160
f 128/128 161/161 160/160
f 128/128 129/129 161/161
f 129/129 162/162 161/161
f 129/129 130/130 162/162
f 130/130 163/163 162/162
f 130/130 131/131 163/163
f 131/131 164/164 163/163
f 131/131 132/132 164/164
f 132/132 165/165 164/164
f 133/133 134/134 166/166
f 134/134 167/167 166/166
f 134/134 135/135 167/167
f 135/135 168/168 167/167
f 135/135 136/136 168/168
f 136/136 169/169 168/168
f 136/136 137/137 169/169
f 137/137 170/170 169/169
f 137/137 138/138 170/170
f 138/138 171/171 170/170
f 138/138 139/139 171/171
f 139/139 172/172 171/171
f 139/139 140/140 172/172
f 140/140 173/173 172/172
f 140/140 141/141 173/173
f 141/141 174/174 173/173
f 141/141 142/142 174/174
f 142/142 175/175 174/174
f 142/142 143/143 175/175
f 143/143 176/176 175/175
f 143/143 144/144 176/176
f 144/144 177/177 176/176
f 144/144 145/145 177/177
f 145/145 178/178 177/177
f 145/145 146/146 178/178
f 146/146 179/179 178/178
f 146/146 147/147 179/179
f 147/147 180/180 179/179
f 147/147 148/148 180/180
f 148/148 181/181 180/180
f 148/148 149/149 181/181
f 149/149 182/182 181/181
f 149/149 150/150 182/182
f 150/150 183/183 182/182
f 150/150 151/151 183/183
f 151/151 184/184 183/183
f 151/151 152/152 184/184
f 152/152 185/185 184/184
f 152/152 153/153 185/185
f 153/153 186/186 185/185
f 153/153 154/154 186/186
f 154/154 187/187 186/186
f 154/154 155/155 187/187
f 155/155 188/188 187/187
f 155/155 156/156 188/188
f 156/156 189/189 188/188
f 156/156 157/157 189/189
f 157/157 190/190 189/189
f 157/157 158/158 190/190
f 158/158 191/191 190/190
f 158/158 159/159 191/191
f 159/159 192/192 191/191
f 159/159 160/160 192/192
f 160/160 193/193 192/192
f 160/160 161/161 193/193
f 161/161 194/194 193/193
f 161/161 162/162 194/194
f 162/162 195/195 194/194
f 162/162 163/163 195/195
f 163/163 196/196 195/195
f 163/163 164/164 196/196
f 164/164 197/197 196/196
f 164/164 165/165 197/197
f 165/165 198/198 197/197
f 166/166 167/167 199/199
f 167/167 200/200 199/199
f 167/167 168/168 200/200
f 168/168 201/201 200/200
f 168/168 169/169 201/201
f 169/169 202/202 201/201
f 169/169 170/170 202/202
f 170/170 203/203 202/202
f 170/170 171/171 203/203
f 171/171 204/204 203/203
f 171/171 172/172 204/204
f 172/172 205/205 204/204
f 172/172 173/173 205/205
f 173/173 206/206 205/205
f 173/173 174/174 206/206
f 174/174 207/207 206/206
f 174/174 175/175 207/207
f 175/175 208/208 207/207
f 175/175 176/176 208/208
f 176/176 209/209 208/208
f 176/176 177/177 209/209
f 177/177 210/210 209/209
f 177/177 178/178 210/210
f 178/178 211/211 210/210
f 178/178 179/179 211/211
f 179/179 212/212 211/211
f 179/179 180/180 212/212
f 180/180 213/213 212/212
f 180/180 181/181 213/213
f 181/181 214/214 213/213
f 181/181 182/182 214/214
f 182/182 215/215 214/214
f 182/182 183/183 215/215
f 183/183 216/216 215/215
f 183/183 184/184 216/216
f 184/184 217/217 216/216
f 184/184 185/185 217/217
f 185/185 218/218 217/217
f 185/185 186/186 218/218
f 186/186 219/219 218/218
f 186/186 187/187 219/219
f 187/187 220/220 219/219
f 187/187 188/188 220/220
f 188/188 221/221 220/220
f 188/188 189/189 221/221
f 189/189 222/222 221/221
f 189/189 190/190 222/222
f 190/190 223/223 222/222
f 190/190 191/191 223/223
f 191/191 224/224 223/223
f 191/191 192/192 224/224
f 192/192 225/225 224/224
f 192/192 193/193 225/225
f 193/193 226/226 225/225
f 193/193 194/194 226/226
f 194/194 227/227 226/226
f 194/194 195/195 227/227
f 195/195 228/228 227/227
f 195/195 196/196 228/228
f 196/196 229/229 228/228
f 196/196 197/197 229/229
f 197/197 230/230 229/229
f 197/197 198/198 230/230
f 198/198 231/231 230/230
f 199/199 200/200 232/232
f 200/200 233/233 232/232
f 200/200 201/201 233/233
f 201/201 234/234 233/233
f 201/201 202/202 234/234
f 202/202 235/235 234/234
f 202/202 203/203 235/235
f 203/203 236/236 235/235
f 203/203 204/204 236/236
f 204/204 237/237 236/236
f 204/204 205/205 237/237
f 205/205 238/238 237/237
f 205/205 206/206 238/238
f 206/206 239/239 238/238
f 206/206 207/207 239/239
f 207/207 240/240 239/239
f 207/207 208/208 240/240
f 208/208 241/241 240/240
f 208/208 209/209 241/241
f 209/209 242/242 241/241
f 209/209 210/210 242/242
f 210/210 243/243 242/242
f 210/210 211/211 243/243
f 211/211 244/244 243/243
f 211/211 212/212 244/244
f 212/212 245/245 244/244
f 212/212 213/213 245/245
f 213/213 246/246 245/245
f 213/213 214/214 246/246
f 214/214 247/247 246/246
f 214/214 215/215 247/247
f 215/215 248/248 247/247
f 215/215 216/216 248/248
f 216/216 249/249 248/248
f 216/216 217/217 249/249
f 217/217 250/250 249/249
f 217/217 218/218 250/250
f 218/218 251/251 250/250
f 218/218 219/219 251/251
f 219/219 252/252 251/251
f 219/219 220/220 252/252
f 220/220 253/253 252/252
f 220/220 221/221 253/253
f 221/221 254/254 253/253
f 221/221 222/222 254/254
f 222/222 255/255 254/254
f 222/222 223/223 255/255
f 223/223 256/256 255/255
f 223/223 224/224 256/256
f 224/224 257/257 256/256
f 224/224 225/225 257/257
f 225/225 258/258 257/257
f 225/225 226/226 258/258
f 226/226 259/259 258/258
f 226/226 227/227 259/259
f 227/227 260/260 259/259
f 227/227 228/228 260/260
f 228/228 261/261 260/260
f 228/228 229/229 261/261
f 229/229 262/262 261/261
f 229/229 230/230 262/262
f 230/230 263/263 262/262
f 230/230 231/231 263/263
f 231/231 264/264 263/263
f 232/232 233/233 265/265
f 233/233 266/266 265/265
f 233/233 234/234 266/266
f 234/234 267/267 266/266
f 234/234 235/235 267/267
f 235/235 268/268 267/267
f 235/235 236/236 268/268
f 236/236 269/269 268/268
f 236/236 237/237 269/269
f 237/237 270/270 269/269
f 237/237 238/238 270/270
f 238/238 271/271 270/270
f 238/238 239/239 271/271
f 239/239 272/272 271/271
f 239/239 240/240 272/272
f 240/240 273/273 272/272
f 240/240 241/241 273/273
f 241/241 274/274 273/273
f 241/241 242/242 274/274
f 242/242 275/275 274/274
f 242/242 243/243 275/275
f 243/243 276/276 275/275
f 243/243 244/244 276/276
f 244/244 277/277 276/276
f 244/244 245/245 277/277
f 245/245 278/278 277/277
f 245/245 246/246 278/278
f 246/246 279/279 278/278
f 246/246 247/247 279/279
f 247/247 280/280 279/279
f 247/247 248/248 280/280
f 248/248 281/281 280/280
f 248/248 249/249 281/281
f 249/249 282/282 281/281
f 249/249 250/250 282/282
f 250/250 283/283 282/282
f 250/250 251/251 283/283
f 251/251 284/284 283/283
f 251/251 252/252 284/284
f 252/252 285/285 284/284
f 252/252 253/253 285/285
f 253/253 286/286 285/285
f 253/253 254/254 286/286
f 254/254 287/287 286/286
f 254/254 255/255 287/287
f 255/255 288/288 287/287
f 255/255 256/256 288/288
f 256/256 289/289 288/288
f 256/256 257/257 289/289
f 257/257 290/290 289/289
f 257/257 258/258 290/290
f 258/258 291/291 290/290
f 258/258 259/259 291/291
f 259/259 292/292 291/291
f 259/259 260/260 292/292
f 260/260 293/293 292/292
f 260/260 261/261 293/293
f 261/261 294/294 293/293
f 261/261 262/262 294/294
f 262/262 295/295 294/294
f 262/262 263/263 295/295
f 263/263 296/296 295/295
f 263/263 264/264 296/296
f 264/264 297/297 296/296
f 265/265 266/266 298/298
f 266/266 299/299 298/298
f 266/266 267/267 299/299
f 267/267 300/300 299/299
f 267/267 268/268 300/300
f 268/268 301/301 300/300
f 268/268 269/269 301/301
f 269/269 302/302 301/301
f 269/269 270/270 302/302
f 270/270 303/303 302/302
f 270/270 271/271 303/303
f 271/271 304/304 303/303
f 271/271 272/272 304/304
f 272/272 305/305 304/304
f 272/272 273/273 305/305
f 273/273 306/306 305/305
f 273/273 274/274 306/306
f 274/274 307/307 306/306
f 274/274 275/275 307/307
f 275/275 308/308 307/307
f 275/275 276/276 308/308
f 276/276 309/309 308/308
f 276/276 277/277 309/309
f 277/277 310/310 309/309
f 277/277 278/278 310/310
f 278/278 311/311 310/310
f 278/278 279/279 311/311
f 279/279 312/312 311/311
f 279/279 280/280 312/312
f 280/280 313/313 312/312
f 280/280 281/281 313/313
f 281/281 314/314 313/313
f 281/281 282/282 314/314
f 282/282 315/315 314/314
f 282/282 283/283 315/315
f 283/283 316/316 315/315
f 283/283 284/284 316/316
f 284/284 317/317 316/316
f 284/284 285/285 317/317
f 285/285 318/318 317/317
f 285/285 286/286 318/318
f 286/286 319/319 318/318
f 286/286 287/287 319/319
f 287/287 320/320 319/319
f 287/287 288/288 320/320
f 288/288 321/321 320/320
f 288/288 289/289 321/321
f 289/289 322/322 321/321
f 289/289 290/290 322/322
f 290/290 323/323 322/322
f 290/290 291/291 323/323
f 291/291 324/324 323/323
f 291/291 292/292 324/324
f 292/292 325/325 324/324
f 292/292 293/293 325/325
f 293/293 326/326 325/325
f 293/293 294/294 326/326
f 294/294 327/327 326/326
f 294/294 295/295 327/327
f 295/295 328/328 327/327
f 295/295 296/296 328/328
f 296/296 329/329 328/328
f 296/296 297/297 329/329
f 297/297 330/330 329/329
f 298/298 299/299 331/331
f 299/299 332/332 331/331
f 299/299 300/300 332/332
f 300/300 333/333 332/332
f 300/300 301/301 333/333
f 301/301 334/334 333/333
f 301/301 302/302 334/334
f 302/302 335/335 334/334
f 302/302 303/303 335/335
f 303/303 336/336 335/335
f 303/303 304/304 336/336
f 304/304 337/337 336/336
f 304/304 305/305 337/337
f 305/305 338/338 337/337
f 305/305 306/306 338/338
f 306/306 339/339 338/338
f 306/306 307/307 339/339
f 307/307 340/340 339/339
f 307/307 308/308 340/340
f 308/308 341/341 340/340
f 308/308 309/309 341/341
f 309/309 342/342 341/341
f 309/309 310/310 342/342
f 310/310 343/343 342/342
f 310/310 311/311 343/343
f 311/311 344/344 343/343
f 311/311 312/312 344/344
f 312/312 345/345 344/344
f 312/312 313/313 345/345
f 313/313 346/346 345/345
f 313/313 314/314 346/346
f 314/314 347/347 346/346
f 314/314 315/315 347/347
f 315/315 348/348 347/347
f 315/315 316/316 348/348
f 316/316 349/349 348/348
f 316/316 317/317 349/349
f 317/317 350/350 349/349
f 317/317 318/318 350/350
f 318/318 351/351 350/350
f 318/318 319/319 351/351
f 319/319 352/352 351/351
f 319/319 320/320 352/352
f 320/320 353/353 352/352
f 320/320 321/321 353/353
f 321/321 354/354 353/353
f 321/321 322/322 354/354
f 322/322 355/355 354/354
f 322/322 323/323 355/355
f 323/323 356/356 355/355
f 323/323 324/324 356/356
f 324/324 357/357 356/356
f 324/324 325/325 357/357
f 325/325 358/358 357/357
f 325/325 326/326 358/358
f 326/326 359/359 358/358
f 326/326 327/327 359/359
f 327/327 360/360 359/359
f 327/327 328/328 360/360
f 328/328 361/361 360/360
f 328/328 329/329 361/361
f 329/329 362/362 361/361
f 329/329 330/330 362/362
f 330/330 363/363 362/362
f 331/331 332/332 364/364
f 332/332 365/365 364/364
f 332/332 333/333 365/365
f 333/333 366/366 365/365
f 333/333 334/334 366/366
f 334/334 367/367 366/366
f 334/334 335/335 367/367
f 335/335 368/368 367/367
f 335/335 336/336 368/368
f 336/336 369/369 368/368
f 336/336 337/337 369/369
f 337/337 370/370 369/369
f 337/337 338/338 370/370
f 338/338 371/371 370/370
f 338/338 339/339 371/371
f 339/339 372/372 371/371
f 339/339 340/340 372/372
f 340/340 373/373 372/372
f 340/340 341/341 373/373
f 341/341 374/374 373/373
f 341/341 342/342 374/374
f 342/342 375/375 374/374
f 342/342 343/343 375/375
f 343/343 376/376 375/375
f 343/343 344/344 376/376
f 344/344 377/377 376/376
f 344/344 345/345 377/377
f 345/345 378/378 377/377
f 345/345 346/346 378/378
f 346/346 379/379 378/378
f 346/346 347/347 379/379
f 347/347 380/380 379/379
f 347/347 348/348 380/380
f 348/348 381/381 380/380
f 348/348 349/349 381/381
f 349/349 382/382 381/381
f 349/349 350/350 382/382
f 350/350 383/383 382/382
f 350/350 351/351 383/383
f 351/351 384/384 383/383
f 351/351 352/352 384/384
f 352/352 385/385 384/384
f 352/352 353/353 385/385
f 353/353 386/386 385/385
f 353/353 354/354 386/386
f 354/354 387/387 386/386
f 354/354 355/355 387/387
f 355/355 388/388 387/387
f 355/355 356/356 388/388
f 356/356 389/389 388/388
f 356/356 357/357 389/389
f 357/357 390/390 389/389
f 357/357 358/358 390/390
f 358/358 391/391 390/390
f 358/358 359/359 391/391
f 359/359 392/392 391/391
f 359/359 360/360 392/392
f 360/360 393/393 392/392
f 360/360 361/361 393/393
f 361/361 394/394 393/393
f 361/361 362/362 394/394
f 362/362 395/395 394/394
f 362/362 363/363 395/395
f 363/363 396/396 395/395
f 364/364 365/365 397/397
f 365/365 398/398 397/397
f 365/365 366/366 398/398
f 366/366 399/399 398/398
f 366/366 367/367 399/399
f 367/367 400/400 399/399
f 367/367 368/368 400/400
f 368/368 401/401 400/400
f 368/368 369/369 401/401
f 369/369 402/402 401/401
f 369/369 370/370 402/402
f 370/370 403/403 402/402
f 370/370 371/371 403/403
f 371/371 404/404 403/403
f 371/371 372/372 404/404
f 372/372 405/405 404/404
f 372/372 373/373 405/405
f 373/373 406/406 405/405
f 373/373 374/374 406/406
f 374/374 407/407 406/406
f 374/374 375/375 407/407
f 375/375 408/408 407/407
f 375/375 376/376 408/408
f 376/376 409/409 408/408
f 376/376 377/377 409/409
f 377/377 410/410 409/409
f 377/377 378/378 410/410
f 378/378 411/411 410/410
f 378/378 379/379 411/411
f 379/379 412/412 411/411
f 379/379 380/380 412/412
f 380/380 413/413 412/412
f 380/380 381/381 413/413
f 381/381 414/414 413/413
f 381/381 382/382 414/414
f 382/382 415/415 414/414
f 382/382 383/383 415/415
f 383/383 416/416 415/415
f 383/383 384/384 416/416
f 384/384 417/417 416/416
f 384/384 385/385 417/417
f 385/385 418/418 417/417
f 385/385 386/386 418/418
f 386/386 419/419 418/418
f 386/386 387/387 419/419
f 387/387 420/420 419/419
f 387/387 388/388 420/420
f 388/388 421/421 420/420
f 388/388 389/389 421/421
f 389/389 422/422 421/421
f 389/389 390/390 422/422
f 390/390 423/423 422/422
f 390/390 391/391 423/423
f 391/391 424/424 423/423
f 391/391 392/392 424/424
f 392/392 425/425 424/424
f 392/392 393/393 425/425
f 393/393 426/426 425/425
f 393/393 394/394 426/426
f 394/394 427/427 426/426
f 394/394 395/395 427/427
f 395/395 428/428 427/427
f 395/395 396/396 428/428
f 396/396 429/429 428/428
f 397/397 398/398 430/430
f 398/398 431/431 430/430
f 398/398 399/399 431/431
f 399/399 432/432 431/431
f 399/399 400/400 432/432
f 400/400 433/433 432/432
f 400/400 401/401 433/433
f 401/401 434/434 433/433
f 401/401 402/402 434/434
f 402/402 435/435 434/434
f 402/402 403/403 435/435
f 403/403 436/436 435/435
f 403/403 404/404 436/436
f 404/404 437/437 436/436
f 404/404 405/405 437/437
f 405/405 438/438 437/437
f 405/405 406/406 438/438
f 406/406 439/439 438/438
f 406/406 407/407 439/439
f 407/407 440/440 439/439
f 407/407 408/408 440/440
f 408/408 441/441 440/440
f 408/408 409/409 441/441
f 409/409 442/442 441/441
f 409/409 410/410 442/442
f 410/410 443/443 442/442
f 410/410 411/411 443/443
f 411/411 444/444 443/443
f 411/411 412/412 444/444
f 412/412 445/445 444/444
f 412/412 413/413 445/445
f 413/413 446/446 445/445
f 413/413 414/414 446/446
f 414/414 447/447 446/446
f 414/414 415/415 447/447
f 415/415 448/448 447/447
f 415/415 416/416 448/448
f 416/416 449/449 448/448
f 416/416 417/417 449/449
f 417/417 450/450 449/449
f 417/417 418/418 450/450
f 418/418 451/451 450/450
f 418/418 419/419 451/451
f 419/419 452/452 451/451
f 419/419 420/420 452/452
f 420/420 453/453 452/452
f 420/420 421/421 453/453
f 421/421 454/454 453/453
f 421/421 422/422 454/454
f 422/422 455/455 454/454
f 422/422 423/423 455/455
f 423/423 456/456 455/455
f 423/423 424/424 456/456
f 424/424 457/457 456/456
f 424/424 425/425 457/457
f 425/425 458/458 457/457
f 425/425 426/426 458/458
f 426/426 459/459 458/458
f 426/426 427/427 459/459
f 427/427 460/460 459/459
f 427/427 428/428 460/460
f 428/428 461/461 460/460
f 428/428 429/429 461/461
f 429/429 462/462 461/461
f 430/430 431/431 463/463
f 431/431 464/464 463/463
f 431/431 432/432 464/464
f 432/432 465/465 464/464
f 432/432 433/433 465/465
f 433/433 466/466 465/465
f 433/433 434/434 466/466
f 434/434 467/467 466/466
f 434/434 435/435 467/467
f 435/435 468/468 467/467
f 435/435 436/436 468/468
f 436/436 469/469 468/468
f 436/436 437/437 469/469
f 437/437 470/470 469/469
f 437/437 438/438 470/470
f 438/438 471/471 470/470
f 438/438 439/439 471/471
f 439/439 472/472 471/471
f 439/439 440/440 472/472
f 440/440 473/473 472/472
f 440/440 441/441 473/473
f 441/441 474/474 473/473
f 441/441 442/442 474/474
f 442/442 475/475 474/474
f 442/442 443/443 475/475
f 443/443 476/476 475/475
f 443/443 444/444 476/476
f 444/444 477/477 476/476
f 444/444 445/445 477/477
f 445/445 478/478 477/477
f 445/445 446/446 478/478
f 446/446 479/479 478/478
f 446/446 447/447 479/479
f 447/447 480/480 479/479
f 447/447 448/448 480/480
f 448/448 481/481 480/480
f 448/448 449/449 481/481
f 449/449 482/482 481/481
f 449/449 450/450 482/482
f 450/450 483/483 482/482
f 450/450 451/451 483/483
f 451/451 484/484 483/483
f 451/451 452/452 484/484
f 452/452 485/485 484/484
f 452/452 453/453 485/485
f 453/453 486/486 485/485
f 453/453 454/454 486/486
f 454/454 487/487 486/486
f 454/454 455/455 487/487
f 455/455 488/488 487/487
f 455/455 456/456 488/488
f 456/456 489/489 488/488
f 456/456 457/457 489/489
f 457/457 490/490 489/489
f 457/457 458/458 490/490
f 458/458 491/491 490/490
f 458/458 459/459 491/491
f 459/459 492/492 491/491
f 459/459 460/460 492/492
f 460/460 493/493 492/492
f 460/460 461/461 493/493
f 461/461 494/494 493/493
f 461/461 462/462 494/494
f 462/462 495/495 494/494
f 463/463 464/464 496/496
f 464/464 497/497 496/496
f 464/464 465/465 497/497
f 465/465 498/498 497/497
f 465/465 466/466 498/498
f 466/466 499/499 498/498
f 466/466 467/467 499/499
f 467/467 500/500 499/499
f 467/467 468/468 500/500
f 468/468 501/501 500/500
f 468/468 469/469 501/501
f 469/469 502/502 501/501
f 469/469 470/470 502/502
f 470/470 503/503 502/502
f 470/470 471/471 503/503
f 471/471 504/504 503/503
f 471/471 472/472 504/504
f 472/472 505/505 504/504
f 472/472 473/473 505/505
f 473/473 506/506 505/505
f 473/473 474/474 506/506
f 474/474 507/507 506/506
f 474/474 475/475 507/507
f 475/475 508/508 507/507
f 475/475 476/476 508/508
f 476/476 509/509 508/508
f 476/476 477/477 509/509
f 477/477 510/510 509/509
f 477/477 478/478 510/510
f 478/478 511/511 510/510
f 478/478 479/479 511/511
f 479/479 512/512 511/511
f 479/479 480/480 512/512
f 480/480 513/513 512/512
f 480/480 481/481 513/513
f 481/481 514/514 513/513
f 481/481 482/482 514/514
f 482/482 515/515 514/514
f 482/482 483/483 515/515
f 483/483 516/516 515/515
f 483/483 484/484 516/516
f 484/484 517/517 516/516
f 484/484 485/485 517/517
f 485/485 518/518 517/517
f 485/485 486/486 518/518
f 486/486 519/519 518/518
f 486/486 487/487 519/519
f 487/487 520/520 519/519
f 487/487 488/488 520/520
f 488/488 521/521 520/520
f 488/488 489/489 521/521
f 489/489 522/522 521/521
f 489/489 490/490 522/522
f 490/490 523/523 522/522
f 490/490 491/491 523/523
f 491/491 524/524 523/523
f 491/491 492/492 524/524
f 492/492 525/525 524/524
f 492/492 493/493 525/525
f 493/493 526/526 525/525
f 493/493 494/494 526/526
f 494/494 527/527 526/526
f 494/494 495/495 527/527
f 495/495 528/528 527/527
f 496/496 497/497 529/529
f 497/497 498/498 530/530
f 498/498 499/499 531/531
f 499/499 500/500 532/532
f 500/500 501/501 533/533
f 501/501 502/502 534/534
f 502/502 503/503 535/535
f 503/503 504/504 536/536
f 504/504 505/505 537/537
f 505/505 506/506 538/538
f 506/506 507/507 539/539
f 507/507 508/508 540/540
f 508/508 509/509 541/541
f 509/509 510/510 542/542
f 510/510 511/511 543/543
f 511/511 512/512 544/544
f 512/512 513/513 545/545
f 513/513 514/514 546/546
f 514/514 515/515 547/547
f 515/515 516/516 548/548
f 516/516 517/517 549/549
f 517/517 518/518 550/550
f 518/518 519/519 551/551
f 519/519 520/520 552/552
f 520/520 521/521 553/553
f 521/521 522/522 554/554
f 522/522 523/523 555/555
f 523/523 524/524 556/556
f 524/524 525/525 557/557
f 525/525 526/526 558/558
f 526/526 527/527 559/559
f 527/527 528/528 560/560
